<mxfile host="app.diagrams.net" modified="2024-05-16T07:34:16.908Z" agent="Mozilla/5.0 (Windows NT 10.0; Win64; x64) AppleWebKit/537.36 (KHTML, like Gecko) Chrome/124.0.0.0 Safari/537.36" version="24.2.5" etag="aHkPeclJIaoEBFabTX4P" type="github">
  <diagram name="페이지-1" id="kJgueh4FvX1Y8hDw_DFq">
    <mxGraphModel>
      <root>
        <mxCell id="0" />
        <mxCell id="1" parent="0" />
      </root>
    </mxGraphModel>
  </diagram>
</mxfile>
